<?xml version="1.0" encoding="UTF-8"?>
<svg id="Layer_1" data-name="Layer 1" xmlns="http://www.w3.org/2000/svg" xmlns:xlink="http://www.w3.org/1999/xlink" version="1.1" viewBox="0 0 841.89 595.28">
  <defs>
    <style>
      .cls-1 {
        fill: url(#linear-gradient);
      }

      .cls-1, .cls-2, .cls-3, .cls-4, .cls-5, .cls-6, .cls-7, .cls-8, .cls-9, .cls-10, .cls-11, .cls-12, .cls-13, .cls-14, .cls-15, .cls-16, .cls-17, .cls-18, .cls-19, .cls-20, .cls-21, .cls-22, .cls-23, .cls-24, .cls-25, .cls-26, .cls-27, .cls-28, .cls-29, .cls-30, .cls-31, .cls-32, .cls-33, .cls-34, .cls-35, .cls-36, .cls-37, .cls-38, .cls-39, .cls-40, .cls-41, .cls-42, .cls-43, .cls-44, .cls-45, .cls-46, .cls-47, .cls-48, .cls-49, .cls-50 {
        stroke-width: 0px;
      }

      .cls-2 {
        fill: url(#linear-gradient-38);
      }

      .cls-3 {
        fill: url(#linear-gradient-33);
      }

      .cls-4 {
        fill: url(#linear-gradient-29);
      }

      .cls-5 {
        fill: url(#linear-gradient-32);
      }

      .cls-6 {
        fill: url(#linear-gradient-30);
      }

      .cls-7 {
        fill: url(#linear-gradient-31);
      }

      .cls-8 {
        fill: url(#linear-gradient-36);
      }

      .cls-9 {
        fill: url(#linear-gradient-39);
      }

      .cls-10 {
        fill: url(#linear-gradient-34);
      }

      .cls-11 {
        fill: url(#linear-gradient-37);
      }

      .cls-12 {
        fill: url(#linear-gradient-35);
      }

      .cls-13 {
        fill: url(#linear-gradient-28);
      }

      .cls-14 {
        fill: url(#linear-gradient-25);
      }

      .cls-15 {
        fill: url(#linear-gradient-11);
      }

      .cls-16 {
        fill: url(#linear-gradient-12);
      }

      .cls-17 {
        fill: url(#linear-gradient-13);
      }

      .cls-18 {
        fill: url(#linear-gradient-10);
      }

      .cls-19 {
        fill: url(#linear-gradient-17);
      }

      .cls-20 {
        fill: url(#linear-gradient-16);
      }

      .cls-21 {
        fill: url(#linear-gradient-19);
      }

      .cls-22 {
        fill: url(#linear-gradient-15);
      }

      .cls-23 {
        fill: url(#linear-gradient-23);
      }

      .cls-24 {
        fill: url(#linear-gradient-21);
      }

      .cls-25 {
        fill: url(#linear-gradient-18);
      }

      .cls-26 {
        fill: url(#linear-gradient-14);
      }

      .cls-27 {
        fill: url(#linear-gradient-22);
      }

      .cls-28 {
        fill: url(#linear-gradient-20);
      }

      .cls-29 {
        fill: url(#linear-gradient-27);
      }

      .cls-30 {
        fill: url(#linear-gradient-24);
      }

      .cls-31 {
        fill: url(#linear-gradient-26);
      }

      .cls-32 {
        fill: url(#linear-gradient-45);
      }

      .cls-33 {
        fill: url(#linear-gradient-46);
      }

      .cls-34 {
        fill: url(#linear-gradient-44);
      }

      .cls-35 {
        fill: url(#linear-gradient-48);
      }

      .cls-36 {
        fill: url(#linear-gradient-49);
      }

      .cls-37 {
        fill: url(#linear-gradient-47);
      }

      .cls-38 {
        fill: url(#linear-gradient-42);
      }

      .cls-39 {
        fill: url(#linear-gradient-43);
      }

      .cls-40 {
        fill: url(#linear-gradient-40);
      }

      .cls-41 {
        fill: url(#linear-gradient-41);
      }

      .cls-42 {
        fill: url(#linear-gradient-4);
      }

      .cls-43 {
        fill: url(#linear-gradient-2);
      }

      .cls-44 {
        fill: url(#linear-gradient-3);
      }

      .cls-45 {
        fill: url(#linear-gradient-8);
      }

      .cls-46 {
        fill: url(#linear-gradient-9);
      }

      .cls-47 {
        fill: url(#linear-gradient-7);
      }

      .cls-48 {
        fill: url(#linear-gradient-5);
      }

      .cls-49 {
        fill: url(#linear-gradient-6);
      }

      .cls-50 {
        fill: #fff;
      }
    </style>
    <linearGradient id="linear-gradient" x1="767.17" y1="183.93" x2="360.82" y2="183.93" gradientUnits="userSpaceOnUse">
      <stop offset="0" stop-color="#2b2171"/>
      <stop offset=".09" stop-color="#262c7b"/>
      <stop offset=".51" stop-color="#115fa9"/>
      <stop offset=".82" stop-color="#047ec6"/>
      <stop offset="1" stop-color="#008ad1"/>
    </linearGradient>
    <linearGradient id="linear-gradient-2" x1="767.17" y1="264.08" x2="360.82" y2="264.08" xlink:href="#linear-gradient"/>
    <linearGradient id="linear-gradient-3" x1="767.17" y1="237.42" x2="360.82" y2="237.42" xlink:href="#linear-gradient"/>
    <linearGradient id="linear-gradient-4" x1="767.17" y1="236.66" x2="360.82" y2="236.66" xlink:href="#linear-gradient"/>
    <linearGradient id="linear-gradient-5" x1="767.17" y1="273.74" x2="360.82" y2="273.74" xlink:href="#linear-gradient"/>
    <linearGradient id="linear-gradient-6" x1="767.17" y1="213.11" x2="360.82" y2="213.11" xlink:href="#linear-gradient"/>
    <linearGradient id="linear-gradient-7" x1="767.17" y1="220.96" x2="360.82" y2="220.96" xlink:href="#linear-gradient"/>
    <linearGradient id="linear-gradient-8" x1="767.17" y1="271.86" x2="360.82" y2="271.86" xlink:href="#linear-gradient"/>
    <linearGradient id="linear-gradient-9" x1="767.17" y1="346.93" x2="360.82" y2="346.93" xlink:href="#linear-gradient"/>
    <linearGradient id="linear-gradient-10" x1="767.17" y1="375.93" x2="360.82" y2="375.93" xlink:href="#linear-gradient"/>
    <linearGradient id="linear-gradient-11" x1="767.17" y1="324.02" x2="360.82" y2="324.02" xlink:href="#linear-gradient"/>
    <linearGradient id="linear-gradient-12" x1="767.17" y1="358.93" x2="360.82" y2="358.93" xlink:href="#linear-gradient"/>
    <linearGradient id="linear-gradient-13" x1="767.17" y1="331.73" x2="360.82" y2="331.73" xlink:href="#linear-gradient"/>
    <linearGradient id="linear-gradient-14" x1="767.17" y1="347.37" x2="360.82" y2="347.37" xlink:href="#linear-gradient"/>
    <linearGradient id="linear-gradient-15" x1="767.17" y1="337.73" x2="360.82" y2="337.73" xlink:href="#linear-gradient"/>
    <linearGradient id="linear-gradient-16" x1="767.17" y1="339.01" x2="360.82" y2="339.01" xlink:href="#linear-gradient"/>
    <linearGradient id="linear-gradient-17" x1="767.17" y1="337.73" x2="360.82" y2="337.73" xlink:href="#linear-gradient"/>
    <linearGradient id="linear-gradient-18" x1="767.17" y1="401.75" x2="360.82" y2="401.75" xlink:href="#linear-gradient"/>
    <linearGradient id="linear-gradient-19" x1="767.17" y1="404.71" x2="360.82" y2="404.71" xlink:href="#linear-gradient"/>
    <linearGradient id="linear-gradient-20" x1="767.17" y1="407" x2="360.82" y2="407" xlink:href="#linear-gradient"/>
    <linearGradient id="linear-gradient-21" x1="767.17" y1="404.7" x2="360.82" y2="404.7" xlink:href="#linear-gradient"/>
    <linearGradient id="linear-gradient-22" x1="767.17" y1="404.58" x2="360.82" y2="404.58" xlink:href="#linear-gradient"/>
    <linearGradient id="linear-gradient-23" x1="767.17" y1="402.5" x2="360.82" y2="402.5" xlink:href="#linear-gradient"/>
    <linearGradient id="linear-gradient-24" x1="767.17" y1="401.75" x2="360.82" y2="401.75" xlink:href="#linear-gradient"/>
    <linearGradient id="linear-gradient-25" x1="767.17" y1="404.6" x2="360.82" y2="404.6" xlink:href="#linear-gradient"/>
    <linearGradient id="linear-gradient-26" x1="767.17" y1="401.75" x2="360.82" y2="401.75" xlink:href="#linear-gradient"/>
    <linearGradient id="linear-gradient-27" x1="767.17" y1="404.7" x2="360.82" y2="404.7" xlink:href="#linear-gradient"/>
    <linearGradient id="linear-gradient-28" x1="767.17" y1="404.58" x2="360.82" y2="404.58" xlink:href="#linear-gradient"/>
    <linearGradient id="linear-gradient-29" x1="767.17" y1="404.6" x2="360.82" y2="404.6" xlink:href="#linear-gradient"/>
    <linearGradient id="linear-gradient-30" x1="767.17" y1="404.7" x2="360.82" y2="404.7" xlink:href="#linear-gradient"/>
    <linearGradient id="linear-gradient-31" x1="767.17" y1="393.42" x2="360.82" y2="393.42" xlink:href="#linear-gradient"/>
    <linearGradient id="linear-gradient-32" x1="767.17" y1="402.5" x2="360.82" y2="402.5" xlink:href="#linear-gradient"/>
    <linearGradient id="linear-gradient-33" x1="767.17" y1="404.7" x2="360.82" y2="404.7" xlink:href="#linear-gradient"/>
    <linearGradient id="linear-gradient-34" x1="767.17" y1="404.6" x2="360.82" y2="404.6" xlink:href="#linear-gradient"/>
    <linearGradient id="linear-gradient-35" x1="767.17" y1="401.75" x2="360.82" y2="401.75" xlink:href="#linear-gradient"/>
    <linearGradient id="linear-gradient-36" x1="767.17" y1="404.7" x2="360.82" y2="404.7" xlink:href="#linear-gradient"/>
    <linearGradient id="linear-gradient-37" x1="767.17" y1="404.7" x2="360.82" y2="404.7" xlink:href="#linear-gradient"/>
    <linearGradient id="linear-gradient-38" x1="767.17" y1="401.75" x2="360.82" y2="401.75" xlink:href="#linear-gradient"/>
    <linearGradient id="linear-gradient-39" x1="767.17" y1="404.6" x2="360.82" y2="404.6" xlink:href="#linear-gradient"/>
    <linearGradient id="linear-gradient-40" x1="767.17" y1="404.7" x2="360.82" y2="404.7" xlink:href="#linear-gradient"/>
    <linearGradient id="linear-gradient-41" x1="767.17" y1="401.75" x2="360.82" y2="401.75" xlink:href="#linear-gradient"/>
    <linearGradient id="linear-gradient-42" x1="767.17" y1="404.7" x2="360.82" y2="404.7" xlink:href="#linear-gradient"/>
    <linearGradient id="linear-gradient-43" x1="767.17" y1="407.15" x2="360.82" y2="407.15" xlink:href="#linear-gradient"/>
    <linearGradient id="linear-gradient-44" x1="767.17" y1="393.43" x2="360.82" y2="393.43" xlink:href="#linear-gradient"/>
    <linearGradient id="linear-gradient-45" x1="767.17" y1="404.71" x2="360.82" y2="404.71" xlink:href="#linear-gradient"/>
    <linearGradient id="linear-gradient-46" x1="767.17" y1="404.71" x2="360.82" y2="404.71" xlink:href="#linear-gradient"/>
    <linearGradient id="linear-gradient-47" x1="767.17" y1="402.5" x2="360.82" y2="402.5" xlink:href="#linear-gradient"/>
    <linearGradient id="linear-gradient-48" x1="767.17" y1="404.71" x2="360.82" y2="404.71" xlink:href="#linear-gradient"/>
    <linearGradient id="linear-gradient-49" x1="77.28" y1="282.19" x2="346.82" y2="282.19" xlink:href="#linear-gradient"/>
  </defs>
  <g>
    <path class="cls-1" d="M728.71,172.24l-7.66,7.66-.19.19c-.95,1-1.54,2.34-1.54,3.83s.62,2.92,1.63,3.93l7.85,7.85c1.01,1.01,2.4,1.63,3.93,1.63s2.92-.62,3.93-1.63l7.85-7.85c1.01-1.01,1.63-2.39,1.63-3.93s-.58-2.84-1.53-3.83c-.06-.07-.12-.13-.19-.19l-7.71-7.71s-.09-.1-.14-.14c-1-.95-2.35-1.53-3.83-1.53s-2.83.58-3.83,1.53l-.19.19Z"/>
    <g>
      <path class="cls-43" d="M369.41,291.42c6.07,5.39,14.27,8.09,24.59,8.09,5.52,0,10.7-.9,15.55-2.7,4.85-1.8,9.09-4.39,12.72-7.78,3.63-3.39,6.46-7.57,8.51-12.55,2.04-4.98,3.06-10.65,3.06-17.02s-1.28-13.02-3.83-19.33c-1.53-3.8-3.44-7.62-5.72-11.48l-15.48,13.56-.64.57c-.95.98-1.45,2.23-1.49,3.5v.34s0,.09,0,.14c.03.6.17,1.2.41,1.77,0,0,0,0,0,.01.05.1.1.21.14.31.25.54.5,1.08.73,1.62.92,2.11,1.63,4.03,2.14,5.78.51,1.75.77,3.13.77,4.16,0,3.9-2.13,7.28-4.78,8.92-2.66,1.64-5.93,2.46-9.81,2.46-4.6,0-7.92-.92-9.96-2.77-2.04-1.85-3.06-4.52-3.06-8.01,0-.82.05-1.74.15-2.77.1-1.02.28-2.26.54-3.7.25-1.43.64-3.13,1.15-5.08.51-1.95,1.06-3.94,1.88-6.61l-19.92-6.16c-2.35,5.85-3.97,10.98-5.09,16.01-1.13,5.03-1.69,9.86-1.69,14.48,0,10.78,3.04,18.87,9.12,24.26Z"/>
      <path class="cls-44" d="M443.56,285.29l17.08-5.49.75-.24c.63-.26,1.23-.64,1.74-1.16.9-.9,1.41-2.05,1.52-3.22.01-.14.02-.28.02-.42v-85.21l-20.65,9.68-.66.31c-.42.23-.81.52-1.16.88-.99.99-1.5,2.27-1.54,3.56v.47s2.9,80.85,2.9,80.85Z"/>
      <path class="cls-42" d="M567.46,265.99c.6,3.32,1.76,6.31,3.47,8.97,1.71,2.67,4.15,4.8,7.31,6.41,3.17,1.61,7.41,2.41,12.74,2.41h62.71c3.42,0,6.31-.38,8.67-1.13,2.36-.75,4.5-1.88,6.41-3.39,2.31,1.91,4.65,3.14,7.01,3.69,2.36.55,5.05.83,8.07.83h34c5.83,0,11.56-.58,17.19-1.73,5.63-1.15,10.63-3.17,15-6.03,4.37-2.87,7.89-6.73,10.56-11.61,2.66-4.88,4-10.98,4-18.32,0-4.93-.63-11.35-1.88-16.02-1.26-4.68-3.12-8.85-5.58-12.52-2.47-3.67-5.58-6.64-9.35-8.9-3.77-2.26-7.85-3.39-12.97-3.39h-12.34l-3.98,23.06c-.11.58-.21,1.17-.3,1.75h0s-.72,4.17-.72,4.17l.71-4.14c-.14.88-.26,1.75-.35,2.59-.24,2.06-.36,3.94-.36,5.38,0,1.91.3,3.72.9,5.43.6,1.71,1.58,3.22,2.94,4.53,1.36,1.31,3.14,2.36,5.35,3.17,2.21.81,4.93,1.21,8.14,1.21,3.84,0,6.05,0,7.28,0h.39c-.26.96-.73,1.61-1.4,2.08-1.11.75-2.82,1.23-5.13,1.43-1.51.2-3.04.33-4.6.38-1.56.05-3.27.1-5.13.15-1.86.05-4.02.1-6.49.15-2.46.05-5.35.07-8.67.07h-24.05c-2.01,0-3.42-.5-4.22-1.51-.81-1-1.21-2.51-1.21-4.53v-10.58s0-.05-.01-.08v-6.27l-15.22,4.06h0s-3.37.9-3.37.9c-.06.01-.11.03-.17.05-.84.24-1.64.69-2.3,1.35-.99.99-1.5,2.27-1.54,3.56v10.03c0,2.01-2.52,3.02-7.54,3.02h-57.44c-2.31,0-3.77-.5-4.37-1.51-.6-1-.91-2.51-.91-4.53v-61.06l-20.37,9.8c-.55.25-1.07.61-1.53,1.06-.99.99-1.5,2.27-1.54,3.56v.34l1.12,51.58c.1,3.42.45,6.78,1.06,10.1Z"/>
      <path class="cls-48" d="M473.24,279.66h0c-.36.33-.73.67-1.12,1.02-4.89,4.37-11.38,9.27-19.46,14.7-1.93,1.3-2.2,4.05-.55,5.69l1.1,1.11s0,.01.02.02l.4.41s.01.01.02.01l12.6,12.6c5.43-3.72,10.46-7.46,15.08-11.24,4.62-3.77,8.62-7.61,11.99-11.53,3.37-3.92,5.98-7.97,7.84-12.14,1.86-4.17,2.79-8.62,2.79-13.35,0-4.12-.98-8.95-2.94-14.48-1.96-5.53-5.76-12.26-11.39-20.21l-15.76,15.76s-.02.02-.04.03c-.01.01-.03.03-.04.04-.96.98-1.46,2.24-1.5,3.52v.34c.02.84.25,1.68.69,2.44.12.18.24.36.35.54,0,0,0,0,0,0,.41.63.82,1.27,1.22,1.9,1.21,1.91,2.26,3.7,3.17,5.35.9,1.66,1.61,3.09,2.11,4.3.5,1.21.75,2.11.75,2.71,0,2.44-2.44,5.92-7.32,10.44Z"/>
      <path class="cls-49" d="M666.46,224.88c1.01,1.01,2.4,1.63,3.93,1.63,1.53,0,2.92-.62,3.93-1.63l7.85-7.85c1-1.01,1.63-2.39,1.63-3.93,0-1.49-.58-2.84-1.54-3.83-.06-.07-.12-.13-.19-.19l-7.71-7.71s-.09-.1-.14-.14c-1-.95-2.35-1.54-3.83-1.54-1.48,0-2.83.58-3.83,1.53l-.19.19-7.66,7.66-.19.19c-.95,1-1.54,2.34-1.54,3.83,0,1.53.62,2.92,1.63,3.93l7.85,7.85Z"/>
      <path class="cls-47" d="M393.15,232.73c1.01,1.01,2.4,1.63,3.93,1.63,1.53,0,2.92-.62,3.93-1.63l7.85-7.85c1.01-1.01,1.63-2.39,1.63-3.93,0-1.49-.58-2.84-1.54-3.83-.06-.07-.12-.13-.19-.19l-7.71-7.71s-.09-.1-.14-.14c-1-.95-2.35-1.54-3.83-1.54-1.48,0-2.83.58-3.83,1.53l-.19.19-7.66,7.66-.19.19c-.95,1-1.54,2.34-1.54,3.83,0,1.53.62,2.92,1.63,3.93l7.85,7.85Z"/>
      <path class="cls-45" d="M507.27,302.78s.01.01.02.02l.19.19,12.23,12.22h0c.21-.12.41-.24.61-.35,7.96-4.6,14.45-9.03,19.45-13.29,5.13-4.37,9.12-8.67,11.99-12.89,2.87-4.22,4.78-8.44,5.73-12.67.95-4.22,1.43-8.49,1.43-12.82,0-3.92-.53-7.94-1.58-12.06-1.06-4.12-2.74-7.87-5.05-11.24-2.31-3.37-5.28-6.11-8.9-8.22-3.62-2.11-7.99-3.17-13.12-3.17h-10.77l-5.05,21.76c-.47,1.78-.87,3.5-1.2,5.18v.03c-.15.69-.28,1.38-.4,2.06-.45,2.56-.68,4.7-.68,6.41,0,1.91.35,3.75,1.06,5.5.7,1.76,1.78,3.32,3.24,4.68,1.46,1.36,3.32,2.44,5.58,3.24,2.26.8,5,1.21,8.22,1.21.56,0,1.58-.03,3.05-.1-1.06.84-2.23,1.72-3.51,2.66-2.62,1.91-5.46,3.85-8.52,5.81-.47.3-.95.6-1.43.9h0c-.63.39-1.26.79-1.89,1.18-.07.05-.15.09-.22.14-.57.35-1.14.7-1.71,1.05-.24.15-.48.29-.72.43-.45.27-.9.55-1.36.82-.44.26-.88.52-1.31.78-.29.17-.57.34-.86.51-.19.11-.38.22-.57.33-.26.15-.51.3-.77.44-.11.06-.22.13-.34.19-.36.2-.72.41-1.07.61-2.29,1.29-4.52,2.48-6.68,3.56l4.91,4.91Z"/>
    </g>
  </g>
  <g>
    <path class="cls-46" d="M363.1,362.14c.96,1.03,2.24,1.86,3.82,2.48,1.59.63,3.48.94,5.69.94,2.32,0,4.35-.37,6.07-1.11,1.73-.74,3.14-1.71,4.25-2.91,1.1-1.2,1.92-2.57,2.46-4.11.54-1.54.81-3.11.81-4.71,0-1.37-.13-2.9-.38-4.58-.25-1.68-.96-3.53-2.12-5.53-1.16-2-2.9-4.18-5.23-6.56-2.32-2.37-5.55-4.96-9.69-7.76l-8.07,13.28,2.97,2.14c-.74,1.32-1.33,2.47-1.78,3.47-.45,1-.79,1.93-1.02,2.78-.23.86-.38,1.67-.47,2.44-.08.77-.13,1.59-.13,2.44,0,1.32.23,2.6.68,3.86.45,1.26,1.16,2.4,2.12,3.43Z"/>
    <rect class="cls-18" x="446.58" y="370.36" width="11.89" height="11.14"/>
    <rect class="cls-15" x="482.9" y="318.45" width="11.89" height="11.14"/>
    <path class="cls-16" d="M506.95,354.01l3.4-14.57c-3.4-.51-6.49-1.17-9.26-1.97-2.78-.8-5.3-1.56-7.56-2.27-2.27-.71-4.29-1.33-6.07-1.84-1.78-.51-3.36-.77-4.72-.77-1.08,0-2.04.14-2.89.43-.85.29-1.73.89-2.63,1.8-.91.91-1.9,2.21-2.97,3.9-1.08,1.69-2.35,3.93-3.82,6.73l7.22,3.86h-8.07s-10.75-.01-10.75-.01c-1.13,0-1.93-.29-2.38-.86-.45-.57-.68-1.43-.68-2.57v-6.86l-12.74,3.43v5.14c0,1.14-1.42,1.71-4.25,1.71h-26.76c-.85,0-1.6-.16-2.25-.47-.65-.31-1.32-1.01-2-2.1l-5.52-8.57-10.62,10.71c.74,1.09,1.44,2.17,2.12,3.26.68,1.09,1.27,2.1,1.78,3.04.51.94.91,1.76,1.19,2.44.28.69.42,1.2.42,1.54,0,1.49-1.59,3.66-4.76,6.51-3.17,2.86-7.53,6.11-13.08,9.77l9.77,9.85c3.06-2.11,5.89-4.24,8.5-6.38,2.6-2.14,4.86-4.33,6.75-6.56,1.9-2.23,3.37-4.53,4.42-6.9.18-.41.33-.84.48-1.26.61.25,1.42.4,2.45.44,1.06.04,16.48.07,24.89.08.03,0,.05,0,.08,0h3.4s.03,0,.05,0c.92,0,1.55,0,1.77,0v-.08c1.15-.1,2.18-.28,3.07-.56,1.33-.43,2.53-1.07,3.61-1.93,1.3,1.09,2.62,1.79,3.95,2.1,1.33.31,2.85.47,4.55.47h12.16c.15,0,.28,0,.37,0h5.95c3.57,0,6.6-.54,9.09-1.63,2.49-1.08,4.84-2.28,7.05-3.6,2.21-1.31,4.49-2.53,6.84-3.64,2.35-1.11,5.17-1.73,8.45-1.84Z"/>
    <g>
      <rect class="cls-17" x="540.93" y="326.16" width="22.09" height="11.14"/>
      <path class="cls-26" d="M578.23,339.36c-1.19-2.97-2.86-6.08-5.01-9.34l-10.62,10.71,4.25,6.43c-.96.34-2.11.64-3.44.9-1.33.26-2.76.47-4.29.64-1.53.17-3.13.31-4.8.43-1.67.12-3.3.17-4.89.17-3.85,0-6.58-.24-8.2-.73-1.61-.49-2.42-1.38-2.42-2.7,0-.63.2-1.46.59-2.49.4-1.03.91-2.2,1.53-3.51l-11.05-4.28c-1.47,2.57-2.55,4.94-3.23,7.11-.68,2.17-1.02,4.23-1.02,6.17,0,3.2.64,5.83,1.91,7.88,1.27,2.06,2.94,3.67,5.01,4.84,2.07,1.17,4.42,1.98,7.05,2.44,2.63.46,5.34.69,8.11.69,2.09,0,4.36-.07,6.8-.21,2.43-.14,4.84-.43,7.22-.86,2.38-.43,4.67-1.03,6.88-1.8,2.21-.77,4.16-1.78,5.86-3.04,1.7-1.26,3.04-2.77,4.04-4.54.99-1.77,1.49-3.86,1.49-6.26,0-2.8-.59-5.68-1.78-8.65Z"/>
    </g>
    <path class="cls-22" d="M649.21,336.01c-1.19-.86-2.45-1.63-3.78-2.31-1.33-.69-2.66-1.27-3.99-1.76-1.33-.49-2.61-.86-3.82-1.11-1.22-.26-2.31-.39-3.27-.39-1.47,0-2.73.19-3.78.56-1.05.37-2.2,1.19-3.44,2.44-.62.63-1.2,1.36-1.74,2.19-.54.83-.99,1.69-1.36,2.57-.37.89-.65,1.77-.85,2.66-.2.89-.3,1.7-.3,2.44,0,2.31.27,4.31.79,6h-23.26c-1.3,0-2.12-.29-2.46-.86-.34-.57-.51-1.43-.51-2.57v-35.13l-13.59,6.43,1.02,31.71c.06,1.94.25,3.86.59,5.74.34,1.89.99,3.59,1.95,5.1.96,1.51,2.34,2.73,4.12,3.64,1.78.91,4.18,1.37,7.18,1.37h23.31c4.87,0,9.69-.37,14.44-1.11,4.76-.74,10-2.08,15.72-4.03l1.7-15-8.41,1.37,3.74-9.94Z"/>
    <path class="cls-20" d="M746.7,348.01c0-1.83-.4-3.58-1.19-5.27-.79-1.68-1.81-3.18-3.06-4.5-1.25-1.31-2.59-2.37-4.04-3.17-1.44-.8-2.79-1.2-4.04-1.2-3.26,0-6.51,1.14-9.77,3.4v-26.53l-13.59,6.43c.11,4.34.23,8.04.34,11.1.11,3.06.21,5.61.3,7.67.09,2.06.16,3.68.21,4.88.06,1.2.1,2.11.13,2.74.03.63.04,1.06.04,1.29v.6c0,.86-.06,1.6-.17,2.23-.11.63-.34,1.17-.68,1.63h-14.74c-1.13,0-1.93-.29-2.38-.86-.45-.57-.68-1.43-.68-2.57v-35.13l-13.59,6.43.54,16.96c-.08-.13-.16-.26-.24-.38-1.73-2.6-3.61-5.01-5.65-7.24-2.04-2.23-4.18-4.23-6.41-6-2.24-1.77-4.4-3.31-6.5-4.63l-4.25,15c1.47.86,3.03,1.91,4.67,3.17,1.64,1.26,3.26,2.63,4.84,4.11,1.59,1.49,3.06,3.07,4.42,4.76,1.36,1.69,2.52,3.38,3.48,5.1-1.3,1.09-3.36,2.16-6.16,3.21-2.8,1.06-6.13,2.13-9.98,3.21l6.8,12.85c1.7-.4,3.47-.94,5.31-1.63,1.84-.69,3.62-1.47,5.35-2.36,1.73-.88,3.33-1.86,4.8-2.91,1.47-1.06,2.69-2.18,3.65-3.38,1.08,2.57,2.65,4.5,4.72,5.78,2.07,1.29,4.6,1.93,7.6,1.93h26.55c3.06,0,6-.34,8.84-1.03,2.83-.69,5.32-1.73,7.48-3.13,2.15-1.4,3.87-3.14,5.14-5.23,1.27-2.09,1.91-4.53,1.91-7.33Z"/>
    <polygon class="cls-19" points="752.69 364.72 764.61 361.72 764.61 310.73 751.02 317.16 752.69 364.72"/>
  </g>
  <g>
    <polygon class="cls-25" points="363.03 402.73 370.9 402.73 370.9 400.58 363.03 400.58 363.03 393.87 372.75 393.87 372.75 391.64 360.29 391.64 360.29 411.86 372.75 411.86 372.76 409.63 363.03 409.63 363.03 402.73"/>
    <path class="cls-21" d="M387.59,397.57h-2.31c-.14,0-.26.04-.36.12-.1.08-.19.19-.28.32l-3.08,4.51c-.16.25-.28.52-.35.79l-3.51-5.36c-.08-.12-.16-.22-.25-.28-.09-.07-.24-.1-.45-.1h-2.41l4.81,6.96-5.01,7.34h2.24c.19,0,.34-.05.44-.16s.21-.23.3-.36l3.33-4.87c.08-.1.13-.22.18-.35.04-.13.08-.26.12-.39l3.6,5.6c.08.13.17.25.29.36.12.11.28.16.49.16h2.41l-5.01-7.46,4.81-6.83Z"/>
    <path class="cls-28" d="M401.31,399.18c-.47-.62-1.04-1.08-1.71-1.4-.67-.31-1.42-.47-2.24-.47-1.02,0-1.92.23-2.71.68-.79.45-1.49,1.05-2.09,1.79l-.23-1.69c-.09-.35-.31-.52-.66-.52h-1.51v19.13h2.52v-6.32c.48.53,1.03.94,1.66,1.23.63.3,1.38.44,2.25.44.96,0,1.82-.19,2.59-.57.77-.38,1.42-.9,1.95-1.57.53-.66.94-1.45,1.22-2.36.28-.91.42-1.89.42-2.94,0-1.19-.13-2.23-.38-3.15-.25-.91-.62-1.68-1.09-2.29ZM399.11,408.68c-.72.95-1.74,1.43-3.08,1.43-.68,0-1.29-.13-1.83-.38-.55-.25-1.05-.69-1.51-1.31v-6.91c.52-.69,1.08-1.22,1.7-1.59s1.33-.56,2.15-.56c.57,0,1.09.1,1.54.3.45.2.83.51,1.14.94.31.43.55.98.71,1.64.16.67.25,1.47.25,2.4,0,1.76-.36,3.11-1.07,4.06Z"/>
    <path class="cls-24" d="M416.15,399.01c-.53-.54-1.16-.95-1.89-1.24-.73-.29-1.52-.43-2.38-.43-1.03,0-1.97.18-2.79.54-.83.36-1.53.86-2.1,1.5-.57.64-1.01,1.39-1.32,2.25-.31.87-.46,1.8-.46,2.79,0,1.23.17,2.32.51,3.27.34.95.81,1.75,1.42,2.39.61.64,1.33,1.13,2.16,1.47.83.33,1.74.5,2.73.5.52,0,1.04-.05,1.57-.13.53-.09,1.04-.22,1.53-.4.49-.18.96-.41,1.39-.68.43-.28.8-.6,1.11-.98l-.71-.92c-.11-.16-.27-.24-.48-.24-.16,0-.35.07-.57.22-.22.15-.5.3-.83.47-.33.17-.72.33-1.18.47-.46.15-1,.22-1.63.22-.68,0-1.29-.11-1.83-.33-.55-.22-1.02-.55-1.41-1-.4-.45-.7-1-.92-1.67-.22-.67-.35-1.45-.37-2.36h9.55c.24,0,.4-.07.48-.2.09-.13.13-.4.13-.79,0-1.02-.15-1.92-.45-2.72-.3-.79-.72-1.46-1.25-2ZM407.78,403.15c.17-1.24.6-2.21,1.3-2.91.7-.7,1.65-1.05,2.86-1.05.57,0,1.09.1,1.54.29.45.19.83.47,1.15.82.31.35.55.77.72,1.26.16.48.25,1.02.25,1.6h-7.82Z"/>
    <path class="cls-27" d="M427.45,397.31c-.95,0-1.75.28-2.41.83-.66.55-1.21,1.31-1.66,2.29l-.17-2.17c-.04-.25-.11-.43-.21-.54s-.29-.16-.56-.16h-1.44v14.29h2.52v-9.03c.18-.49.38-.92.6-1.31.22-.38.47-.7.75-.96.28-.26.59-.45.95-.59.35-.13.75-.2,1.21-.2.32,0,.61.03.86.09.25.06.45.08.58.08.23,0,.37-.12.42-.35l.18-1.88c-.22-.14-.46-.24-.74-.31-.28-.07-.57-.1-.87-.1Z"/>
    <path class="cls-23" d="M438.07,409.35c-.07,0-.16.04-.26.11-.1.07-.22.15-.36.23-.14.08-.31.16-.5.23-.19.07-.42.11-.68.11-.46,0-.84-.15-1.13-.44-.29-.29-.44-.74-.44-1.34v-8.58h4.13v-1.82h-4.13v-4.92h-1.27c-.16,0-.29.05-.39.13-.1.09-.16.21-.19.35l-.58,4.42-2.34.3v1c0,.19.05.33.15.42s.23.13.38.13h1.72v8.75c0,1.19.3,2.09.91,2.72.61.63,1.47.95,2.6.95.65,0,1.28-.12,1.89-.35s1.13-.55,1.57-.95l-.73-1.2c-.1-.16-.22-.24-.35-.24Z"/>
    <rect class="cls-30" x="448.02" y="391.64" width="2.74" height="20.22"/>
    <path class="cls-14" d="M465.86,398.83c-.4-.48-.9-.84-1.5-1.1-.6-.26-1.29-.39-2.07-.39-.51,0-.98.05-1.42.16-.44.11-.85.26-1.24.47-.39.2-.76.44-1.11.73-.35.28-.68.6-.99.95l-.2-1.55c-.09-.35-.31-.52-.66-.52h-1.51v14.29h2.52v-10.53c.55-.61,1.14-1.1,1.78-1.45.64-.36,1.34-.54,2.08-.54,1.01,0,1.76.3,2.25.9.49.6.74,1.44.74,2.52v9.1h2.52v-9.1c0-.81-.1-1.55-.31-2.21-.21-.67-.51-1.24-.91-1.71Z"/>
    <path class="cls-31" d="M474.56,391.98c-.6.23-1.12.56-1.54.99-.43.44-.76.97-.99,1.61-.23.64-.35,1.36-.35,2.18v1.38h-2.26v1.03c0,.19.06.33.19.43.13.1.29.17.49.22l1.58.18v11.85h2.53v-11.89h4.04v-1.82h-4.12v-1.31c0-.61.07-1.12.2-1.54.14-.41.33-.75.59-1,.25-.25.56-.44.91-.55.35-.11.75-.17,1.18-.17.39,0,.69,0,.92-.03.23-.02.35-.14.37-.37l.06-1.26c-.54-.19-1.12-.28-1.76-.28-.75,0-1.43.11-2.03.34Z"/>
    <path class="cls-29" d="M491.22,399.34c-.59-.64-1.31-1.13-2.14-1.48-.84-.35-1.78-.52-2.82-.52s-2,.17-2.84.52c-.84.35-1.56.84-2.15,1.48-.59.64-1.05,1.41-1.36,2.32-.32.91-.47,1.92-.47,3.04s.16,2.15.47,3.05c.31.9.77,1.67,1.36,2.31.59.64,1.31,1.13,2.15,1.47.84.34,1.79.52,2.84.52s1.98-.17,2.82-.52c.84-.34,1.55-.83,2.14-1.47.59-.64,1.05-1.41,1.36-2.31.31-.9.47-1.92.47-3.05s-.16-2.13-.47-3.04c-.32-.91-.77-1.68-1.36-2.32ZM489.41,408.68c-.7.95-1.75,1.42-3.16,1.42s-2.49-.47-3.2-1.42-1.05-2.26-1.05-3.96c0-.85.09-1.61.26-2.28.17-.67.44-1.24.79-1.7.35-.46.79-.81,1.33-1.06.53-.24,1.15-.37,1.87-.37,1.41,0,2.46.48,3.16,1.43.7.95,1.04,2.28,1.04,3.98s-.35,3.01-1.04,3.96Z"/>
    <path class="cls-13" d="M502.74,397.31c-.95,0-1.75.28-2.41.83-.66.55-1.21,1.31-1.66,2.29l-.17-2.17c-.04-.25-.11-.43-.21-.54s-.29-.16-.56-.16h-1.44v14.29h2.52v-9.03c.18-.49.38-.92.6-1.31.22-.38.47-.7.75-.96.28-.26.59-.45.95-.59.35-.13.75-.2,1.21-.2.32,0,.61.03.86.09.25.06.45.08.58.08.23,0,.37-.12.42-.35l.18-1.88c-.22-.14-.46-.24-.74-.31-.28-.07-.57-.1-.87-.1Z"/>
    <path class="cls-4" d="M524.73,398.75c-.41-.46-.91-.81-1.5-1.05-.59-.24-1.26-.36-2.01-.36-.47,0-.93.06-1.39.17-.46.11-.89.29-1.29.54-.4.25-.77.56-1.09.93-.32.38-.59.82-.8,1.34-.26-.91-.69-1.64-1.29-2.17-.6-.54-1.38-.8-2.33-.8-.87,0-1.63.21-2.29.62-.66.41-1.25.95-1.78,1.59l-.18-1.47c-.09-.35-.31-.52-.66-.52h-1.51v14.29h2.52v-10.65c.44-.57.93-1.03,1.45-1.36.53-.33,1.1-.5,1.72-.5.88,0,1.56.28,2.02.85.46.56.69,1.42.69,2.57v9.1h2.53v-9.1c0-.56.08-1.06.25-1.49.16-.43.39-.78.67-1.07.28-.28.61-.5.98-.64.37-.15.76-.22,1.18-.22.92,0,1.63.29,2.12.87.49.58.73,1.43.73,2.55v9.1h2.52v-9.1c0-.87-.11-1.63-.32-2.31-.22-.67-.53-1.24-.94-1.7Z"/>
    <path class="cls-6" d="M538.79,398.81c-.42-.47-.95-.84-1.57-1.1-.62-.26-1.33-.4-2.13-.4-1.11,0-2.12.19-3.03.56-.91.38-1.76.95-2.55,1.71l.45.8c.08.13.19.24.31.33.12.09.27.13.44.13.22,0,.44-.08.66-.23.22-.15.48-.33.79-.52.31-.19.67-.37,1.09-.52.42-.16.94-.23,1.56-.23.92,0,1.62.28,2.1.85.48.57.72,1.41.72,2.52v1.11c-1.63.04-3,.19-4.12.44-1.12.26-2.03.59-2.72,1-.7.4-1.2.87-1.51,1.39-.31.52-.47,1.07-.47,1.63,0,.65.11,1.21.32,1.69.21.48.5.87.86,1.18.36.31.79.54,1.28.7.49.16,1.01.23,1.57.23s1.04-.05,1.49-.15c.45-.1.87-.24,1.26-.42s.77-.41,1.13-.68c.36-.27.72-.58,1.1-.92l.28,1.35c.07.24.18.39.31.47.13.08.32.12.56.12h1.11v-9.14c0-.8-.11-1.53-.32-2.2-.22-.67-.54-1.24-.96-1.71ZM537.62,408.39c-.28.3-.57.57-.87.8-.3.23-.61.44-.93.61-.32.17-.67.3-1.04.39-.37.09-.77.13-1.21.13-.33,0-.64-.04-.92-.12-.29-.08-.54-.21-.75-.38-.21-.17-.38-.4-.5-.67-.12-.27-.18-.6-.18-.97s.12-.75.35-1.07c.23-.32.6-.6,1.11-.83.51-.23,1.18-.43,1.99-.57.81-.15,1.8-.24,2.96-.27v2.96Z"/>
    <path class="cls-7" d="M557.11,392.17c-.16-.16-.36-.29-.57-.39s-.45-.14-.69-.14-.47.05-.68.14-.4.22-.56.39c-.16.17-.29.36-.38.58-.09.22-.14.45-.14.7s.05.47.14.68c.09.21.22.4.38.56.16.16.35.29.56.38.21.09.44.14.68.14s.48-.05.69-.14c.22-.09.41-.22.57-.38.16-.16.3-.35.4-.56.1-.21.15-.44.15-.68s-.05-.48-.15-.7c-.1-.22-.23-.41-.4-.58Z"/>
    <path class="cls-5" d="M547.16,392.92h-1.27c-.16,0-.29.05-.39.13-.1.09-.16.21-.19.35l-.58,4.4-2.34.31v1c0,.19.05.33.15.42s.23.13.38.13h1.72v8.75c0,1.19.3,2.09.91,2.72.61.63,1.47.95,2.6.95.65,0,1.28-.12,1.89-.35.61-.23,1.13-.55,1.57-.95l-.73-1.2c-.1-.16-.22-.24-.35-.24-.07,0-.16.04-.26.11-.1.07-.22.15-.36.23-.14.08-.31.16-.5.23-.19.07-.42.11-.68.11-.46,0-.84-.15-1.13-.44-.29-.29-.44-.74-.44-1.34v-8.58h7.36v12.19h2.51v-14.01h-9.88v-4.92Z"/>
    <path class="cls-3" d="M572.2,399.34c-.59-.64-1.31-1.13-2.14-1.48-.84-.35-1.78-.52-2.82-.52s-2,.17-2.84.52c-.84.35-1.56.84-2.15,1.48-.59.64-1.05,1.41-1.36,2.32-.32.91-.47,1.92-.47,3.04s.16,2.15.47,3.05c.31.9.77,1.67,1.36,2.31.59.64,1.31,1.13,2.15,1.47.84.34,1.79.52,2.84.52s1.98-.17,2.82-.52,1.55-.83,2.14-1.47c.59-.64,1.05-1.41,1.36-2.31.31-.9.47-1.92.47-3.05s-.16-2.13-.47-3.04c-.32-.91-.77-1.68-1.36-2.32ZM570.4,408.68c-.7.95-1.75,1.42-3.16,1.42s-2.49-.47-3.2-1.42-1.05-2.26-1.05-3.96c0-.85.09-1.61.26-2.28.17-.67.44-1.24.79-1.7.35-.46.79-.81,1.33-1.06.53-.24,1.15-.37,1.87-.37,1.41,0,2.46.48,3.16,1.43.7.95,1.04,2.28,1.04,3.98s-.35,3.01-1.04,3.96Z"/>
    <path class="cls-10" d="M587.95,398.83c-.4-.48-.9-.84-1.5-1.1-.6-.26-1.29-.39-2.07-.39-.51,0-.98.05-1.42.16-.44.11-.85.26-1.24.47-.39.2-.76.44-1.11.73-.35.28-.68.6-.99.95l-.2-1.55c-.09-.35-.31-.52-.66-.52h-1.51v14.29h2.52v-10.53c.55-.61,1.14-1.1,1.78-1.45.64-.36,1.34-.54,2.08-.54,1.01,0,1.76.3,2.25.9.49.6.74,1.44.74,2.52v9.1h2.52v-9.1c0-.81-.1-1.55-.31-2.21-.21-.67-.51-1.24-.91-1.71Z"/>
    <polygon class="cls-12" points="612.42 391.64 596.59 391.64 596.59 393.94 603.15 393.94 603.15 411.86 605.88 411.86 605.88 393.94 612.42 393.94 612.42 391.64"/>
    <path class="cls-8" d="M621.56,399.01c-.53-.54-1.16-.95-1.89-1.24-.73-.29-1.52-.43-2.38-.43-1.03,0-1.97.18-2.79.54-.83.36-1.53.86-2.1,1.5-.57.64-1.01,1.39-1.32,2.25-.31.87-.46,1.8-.46,2.79,0,1.23.17,2.32.51,3.27.34.95.81,1.75,1.42,2.39.61.64,1.33,1.13,2.16,1.47.83.33,1.74.5,2.73.5.52,0,1.04-.05,1.57-.13.53-.09,1.04-.22,1.53-.4.49-.18.96-.41,1.39-.68.43-.28.8-.6,1.11-.98l-.71-.92c-.11-.16-.27-.24-.48-.24-.16,0-.35.07-.57.22-.22.15-.5.3-.83.47-.33.17-.72.33-1.18.47-.46.15-1,.22-1.63.22-.68,0-1.29-.11-1.83-.33-.55-.22-1.02-.55-1.41-1-.4-.45-.7-1-.92-1.67-.22-.67-.35-1.45-.37-2.36h9.55c.24,0,.4-.07.48-.2.09-.13.13-.4.13-.79,0-1.02-.15-1.92-.45-2.72-.3-.79-.72-1.46-1.25-2ZM613.19,403.15c.17-1.24.6-2.21,1.3-2.91.7-.7,1.65-1.05,2.86-1.05.57,0,1.09.1,1.54.29.45.19.83.47,1.15.82.31.35.55.77.72,1.26.16.48.25,1.02.25,1.6h-7.82Z"/>
    <path class="cls-11" d="M635.99,408.7c-.17,0-.34.07-.52.22-.17.15-.39.31-.65.49-.26.18-.59.34-.98.49-.39.15-.9.22-1.51.22s-1.22-.12-1.73-.36c-.51-.24-.95-.59-1.31-1.04-.36-.46-.64-1.02-.84-1.69-.2-.67-.3-1.44-.3-2.31s.09-1.58.28-2.24c.18-.67.46-1.24.82-1.71.36-.47.81-.83,1.35-1.08.54-.25,1.16-.37,1.86-.37.53,0,.97.06,1.33.18.36.12.67.25.92.39.25.14.46.27.63.39.17.12.32.18.47.18.13,0,.23-.03.31-.08s.15-.14.23-.24l.66-.9c-.59-.59-1.27-1.05-2.04-1.38-.77-.32-1.65-.49-2.66-.49-1.08,0-2.04.18-2.87.55-.83.37-1.53.88-2.1,1.53-.57.65-1,1.43-1.3,2.34-.3.9-.44,1.89-.44,2.95,0,1.17.16,2.21.48,3.12.32.91.76,1.68,1.33,2.31.56.63,1.23,1.1,2,1.43.77.33,1.6.49,2.49.49.52,0,1.03-.04,1.52-.13.5-.08.98-.22,1.43-.4s.88-.41,1.28-.68c.4-.27.75-.6,1.06-.99l-.71-.92c-.11-.16-.27-.24-.48-.24Z"/>
    <path class="cls-2" d="M650.61,398.83c-.4-.48-.9-.84-1.5-1.1-.6-.26-1.29-.39-2.07-.39-.97,0-1.82.19-2.57.58-.74.39-1.42.9-2.03,1.55v-7.83h-2.52v20.22h2.52v-10.53c.55-.61,1.14-1.1,1.78-1.45.64-.36,1.34-.54,2.08-.54,1.01,0,1.76.3,2.25.9.49.6.74,1.44.74,2.52v9.1h2.52v-9.1c0-.81-.1-1.55-.31-2.21-.21-.67-.51-1.24-.91-1.71Z"/>
    <path class="cls-9" d="M666.41,398.83c-.4-.48-.9-.84-1.5-1.1-.6-.26-1.29-.39-2.07-.39-.51,0-.98.05-1.42.16-.44.11-.85.26-1.24.47-.39.2-.76.44-1.11.73-.35.28-.68.6-.99.95l-.2-1.55c-.09-.35-.31-.52-.66-.52h-1.51v14.29h2.52v-10.53c.55-.61,1.14-1.1,1.78-1.45.64-.36,1.34-.54,2.08-.54,1.01,0,1.76.3,2.25.9.49.6.74,1.44.74,2.52v9.1h2.52v-9.1c0-.81-.1-1.55-.31-2.21-.21-.67-.51-1.24-.91-1.71Z"/>
    <path class="cls-40" d="M682.52,399.34c-.59-.64-1.31-1.13-2.14-1.48-.84-.35-1.78-.52-2.82-.52s-2,.17-2.84.52c-.84.35-1.56.84-2.15,1.48-.59.64-1.05,1.41-1.36,2.32-.32.91-.47,1.92-.47,3.04s.16,2.15.47,3.05c.31.9.77,1.67,1.36,2.31.59.64,1.31,1.13,2.15,1.47.84.34,1.79.52,2.84.52s1.98-.17,2.82-.52c.84-.34,1.55-.83,2.14-1.47.59-.64,1.05-1.41,1.36-2.31.31-.9.47-1.92.47-3.05s-.16-2.13-.47-3.04c-.32-.91-.77-1.68-1.36-2.32ZM680.71,408.68c-.7.95-1.75,1.42-3.16,1.42s-2.49-.47-3.2-1.42c-.7-.95-1.05-2.26-1.05-3.96,0-.85.09-1.61.26-2.28.17-.67.44-1.24.79-1.7.35-.46.8-.81,1.33-1.06.53-.24,1.15-.37,1.87-.37,1.41,0,2.46.48,3.16,1.43.7.95,1.04,2.28,1.04,3.98s-.35,3.01-1.04,3.96Z"/>
    <rect class="cls-41" x="687.67" y="391.64" width="2.51" height="20.22"/>
    <path class="cls-38" d="M705.29,399.34c-.59-.64-1.31-1.13-2.14-1.48-.84-.35-1.78-.52-2.82-.52s-2,.17-2.84.52c-.84.35-1.56.84-2.15,1.48-.59.64-1.05,1.41-1.36,2.32-.32.91-.47,1.92-.47,3.04s.16,2.15.47,3.05c.31.9.77,1.67,1.36,2.31.59.64,1.31,1.13,2.15,1.47.84.34,1.79.52,2.84.52s1.98-.17,2.82-.52,1.55-.83,2.14-1.47c.59-.64,1.05-1.41,1.36-2.31.31-.9.47-1.92.47-3.05s-.16-2.13-.47-3.04c-.32-.91-.77-1.68-1.36-2.32ZM703.48,408.68c-.7.95-1.75,1.42-3.16,1.42s-2.49-.47-3.2-1.42-1.05-2.26-1.05-3.96c0-.85.09-1.61.26-2.28.17-.67.44-1.24.79-1.7.35-.46.79-.81,1.33-1.06.53-.24,1.15-.37,1.87-.37,1.41,0,2.46.48,3.16,1.43.7.95,1.04,2.28,1.04,3.98s-.35,3.01-1.04,3.96Z"/>
    <path class="cls-39" d="M720.02,398.09l-.17,1.11c-.5-.59-1.07-1.05-1.72-1.38-.65-.33-1.44-.49-2.37-.49s-1.82.19-2.59.56c-.77.37-1.42.88-1.95,1.52-.53.64-.94,1.41-1.22,2.29-.28.88-.42,1.83-.42,2.84,0,1.15.13,2.17.39,3.06.26.89.63,1.64,1.11,2.25s1.07,1.07,1.76,1.38,1.47.47,2.33.47c.49,0,.94-.04,1.36-.13.42-.09.81-.23,1.16-.41.36-.18.7-.41,1.02-.68.32-.27.64-.59.95-.95v1.65c0,.56-.09,1.09-.26,1.57-.17.48-.44.9-.78,1.25-.35.35-.78.63-1.3.83-.52.2-1.13.3-1.81.3-.6,0-1.11-.07-1.52-.2-.41-.13-.76-.28-1.04-.44-.28-.16-.52-.31-.72-.44-.2-.13-.38-.2-.55-.2-.16,0-.29.03-.4.1-.11.07-.2.16-.28.28l-.58.95c.56.51,1.27.93,2.11,1.28.84.34,1.85.52,3.03.52,1.05,0,1.99-.15,2.81-.44.82-.3,1.52-.71,2.08-1.23.56-.52.99-1.14,1.29-1.86.3-.72.44-1.51.44-2.36v-13.5h-1.51c-.36,0-.58.17-.66.52ZM719.66,407.5c-.52.7-1.08,1.23-1.7,1.61-.62.38-1.33.56-2.15.56-.57,0-1.09-.1-1.54-.3-.45-.2-.83-.51-1.14-.92-.31-.42-.55-.95-.71-1.6-.17-.65-.25-1.42-.25-2.31,0-1.68.36-2.98,1.07-3.89.71-.91,1.74-1.37,3.08-1.37.68,0,1.29.13,1.85.39.56.26,1.05.69,1.5,1.29v6.55Z"/>
    <path class="cls-34" d="M728.85,392.17c-.16-.16-.36-.29-.58-.39-.22-.09-.45-.14-.7-.14s-.47.05-.68.14-.4.22-.56.39c-.16.16-.29.36-.38.58-.09.22-.14.45-.14.7s.05.47.14.68c.09.21.22.4.38.56.16.16.35.29.56.39s.44.14.68.14.48-.05.7-.14c.22-.09.41-.22.58-.39.16-.17.3-.35.4-.56.1-.21.15-.44.15-.68s-.05-.48-.15-.7c-.1-.22-.23-.41-.4-.58Z"/>
    <rect class="cls-32" x="726.35" y="397.57" width="2.51" height="14.29"/>
    <path class="cls-33" d="M741.01,404.97c-.35-.28-.74-.52-1.19-.71-.44-.19-.9-.36-1.36-.52-.47-.16-.92-.3-1.36-.44-.44-.14-.84-.29-1.19-.47-.35-.18-.63-.39-.84-.63-.21-.25-.32-.55-.32-.92,0-.29.06-.56.19-.81.13-.25.31-.47.55-.66.24-.19.53-.34.87-.44.34-.11.72-.16,1.14-.16.49,0,.91.05,1.27.16.36.11.67.23.92.35.26.13.48.24.66.35.18.1.34.15.48.15.23,0,.41-.1.52-.31l.56-.92c-.55-.52-1.19-.92-1.94-1.22-.75-.3-1.59-.44-2.53-.44-.81,0-1.53.11-2.16.34-.63.23-1.16.53-1.59.91-.43.38-.76.82-.99,1.33-.23.5-.34,1.03-.34,1.57,0,.61.11,1.13.32,1.56.21.43.49.79.84,1.08.35.29.75.53,1.19.73.45.19.9.36,1.37.51.47.15.92.29,1.37.43.45.14.84.3,1.19.48.35.18.63.4.84.66.21.26.32.59.32.98,0,.32-.06.62-.18.9-.12.28-.3.53-.54.75-.24.22-.55.39-.92.52-.37.13-.79.19-1.28.19-.57,0-1.05-.07-1.44-.2-.39-.13-.71-.28-.98-.44s-.5-.31-.68-.44c-.19-.13-.37-.2-.54-.2-.16,0-.29.03-.39.1-.1.07-.19.16-.27.28l-.59.96c.56.51,1.25.92,2.06,1.25.81.32,1.71.49,2.71.49.87,0,1.65-.12,2.31-.35.67-.23,1.23-.56,1.69-.97.46-.41.81-.89,1.04-1.45.23-.56.35-1.17.35-1.83,0-.57-.11-1.07-.32-1.47-.21-.41-.49-.75-.84-1.04Z"/>
    <path class="cls-37" d="M752.07,409.35c-.07,0-.16.04-.26.11-.1.07-.22.15-.36.23-.14.08-.31.16-.5.23-.19.07-.42.11-.68.11-.46,0-.84-.15-1.13-.44-.29-.29-.44-.74-.44-1.34v-8.58h4.13v-1.82h-4.13v-4.92h-1.27c-.16,0-.29.05-.39.13-.1.09-.16.21-.19.35l-.58,4.42-2.34.3v1c0,.19.05.33.15.42s.23.13.38.13h1.72v8.75c0,1.19.3,2.09.91,2.72.61.63,1.47.95,2.6.95.65,0,1.28-.12,1.89-.35.61-.23,1.13-.55,1.57-.95l-.73-1.2c-.1-.16-.22-.24-.35-.24Z"/>
    <path class="cls-35" d="M764.3,406.01c-.21-.41-.49-.75-.84-1.04-.35-.28-.74-.52-1.19-.71-.44-.19-.9-.36-1.36-.52-.47-.16-.92-.3-1.36-.44-.44-.14-.84-.29-1.19-.47-.35-.18-.63-.39-.84-.63-.21-.25-.32-.55-.32-.92,0-.29.06-.56.19-.81.13-.25.31-.47.55-.66.24-.19.53-.34.87-.44.34-.11.72-.16,1.14-.16.49,0,.91.05,1.27.16.36.11.67.23.92.35.26.13.48.24.66.35.18.1.34.15.48.15.23,0,.41-.1.52-.31l.56-.92c-.55-.52-1.19-.92-1.94-1.22-.75-.3-1.59-.44-2.53-.44-.81,0-1.53.11-2.16.34-.63.23-1.16.53-1.59.91-.43.38-.76.82-.99,1.33-.23.5-.34,1.03-.34,1.57,0,.61.11,1.13.32,1.56.21.43.49.79.84,1.08.35.29.75.53,1.19.73.45.19.9.36,1.37.51.47.15.92.29,1.37.43.45.14.84.3,1.19.48.35.18.63.4.84.66.21.26.32.59.32.98,0,.32-.06.62-.18.9-.12.28-.3.53-.54.75-.24.22-.55.39-.92.52-.37.13-.79.19-1.28.19-.57,0-1.05-.07-1.44-.2-.39-.13-.71-.28-.98-.44s-.5-.31-.68-.44c-.19-.13-.37-.2-.54-.2-.16,0-.29.03-.39.1-.1.07-.19.16-.27.28l-.59.96c.56.51,1.25.92,2.06,1.25.81.32,1.71.49,2.71.49.87,0,1.65-.12,2.31-.35.67-.23,1.23-.56,1.69-.97.46-.41.81-.89,1.04-1.45.23-.56.35-1.17.35-1.83,0-.57-.11-1.07-.32-1.47Z"/>
  </g>
  <g>
    <path class="cls-36" d="M346.82,282.19c0-28.65-8.95-55.2-24.19-77.04l13.47-50.37.31-1.18c.05-.26.07-.52.07-.8,0-2.98-2.42-5.39-5.39-5.39h-123.33l.13.07c-72.51,2.19-130.62,61.66-130.62,134.7,0,28.64,8.94,55.19,24.17,77.02l-13.48,50.39-.31,1.18c-.05.26-.07.52-.07.8,0,2.98,2.42,5.39,5.39,5.39h123.33l-.13-.07c72.52-2.19,130.64-61.65,130.64-134.71Z"/>
    <g>
      <path class="cls-50" d="M129.56,314.73l-23.05,86.07h28.26c19.19,0,35.26-13.37,39.4-31.3l9.22-34.26c2.2-8.79,10.14-15.3,19.61-15.3h41.78c19.74,0,36.18-14.15,39.72-32.86l9.25-34.53h-75.15c-40.82,0-75.91,25.9-89.05,62.18Z"/>
      <path class="cls-50" d="M238.42,163.59h1.23c.22,0,.44-.02.67-.02l-1.89.02Z"/>
      <path class="cls-50" d="M239.65,163.59c-41.51,1.23-76.27,29.28-87.6,67.4l-12.89,48.3c-.02.09-.03.17-.03.27,0,.74.61,1.35,1.35,1.35.47,0,.87-.24,1.12-.6.05-.07.09-.14.12-.23,16.02-29.26,47.1-49.1,82.8-49.1h43.99c18.66,0,34.37-12.65,39.03-29.83l10.04-37.56h-77.94Z"/>
    </g>
  </g>
</svg>